<?xml version="1.0" encoding="utf-8" ?>
<svg xmlns="http://www.w3.org/2000/svg" xmlns:xlink="http://www.w3.org/1999/xlink" width="710" height="710">
	<path fill="#FEFEFE" transform="scale(0.69401 0.69401)" d="M0 -0L1024 0L1024 1024L-0 1024L0 -0Z"/>
	<path fill="#231F20" transform="scale(0.69401 0.69401)" d="M348.962 371.131C354.229 371.114 358.721 371.984 362.55 375.959C364.98 378.482 366.135 382.455 365.886 385.903C365.678 388.787 364.474 392.864 361.994 394.64C360.21 395.917 358.815 395.699 356.769 395.471C355.129 393.525 354.874 392.229 354.062 389.925C351.385 382.327 347.231 387.213 342.225 384.403C340.755 383.578 339.344 381.863 338.877 380.25C338.386 378.556 338.716 376.674 339.72 375.222C341.631 372.456 345.868 371.622 348.962 371.131Z"/>
	<path fill="#231F20" transform="scale(0.69401 0.69401)" d="M745.453 765.961C747.522 766.009 749.274 766.341 751.128 767.316C758.892 771.399 762.758 781.052 766.719 788.303C767.953 790.562 769.768 792.733 770.497 795.219C770.991 796.902 771.059 798.467 770.05 800C769.102 801.44 767.391 801.726 765.832 802.164C756.861 799.542 750.965 791.245 745.872 783.889C743.696 780.747 739.867 775.51 740.809 771.47C741.487 768.564 742.933 767.382 745.453 765.961Z"/>
	<path fill="#231F20" transform="scale(0.69401 0.69401)" d="M196.558 332.473C199.28 332.436 201.793 332.307 204.396 333.256C211.553 335.865 218.13 341.81 224.517 345.992C227.354 347.849 230.879 349.488 233.428 351.677C234.867 352.912 234.873 354.413 234.927 356.25C234.987 358.304 233.977 359.568 232.69 361.045C229.08 362.531 225.658 362.105 222.031 360.801C211.813 357.129 199.676 346.848 195.75 336.473C195.107 334.774 195.797 333.922 196.558 332.473Z"/>
	<path fill="#231F20" transform="scale(0.69401 0.69401)" d="M311.707 283.538L312.479 283.5C314.234 283.487 315.254 283.799 316.527 285C317.283 287.488 316.502 290.012 316.222 292.543C315.915 295.306 315.924 298.136 315.874 300.912L317.663 300.195C319.273 299.557 320.765 298.791 322.519 299.336C323.808 299.736 324.692 300.674 325.198 301.91C326.305 304.614 326.026 308.599 324.738 311.224C322.893 314.985 320.469 316.139 316.693 317.398C315.317 317.413 313.866 317.257 312.554 316.829C307.76 315.267 303.588 311.189 301.521 306.654C299.635 302.516 299.416 297.368 301.2 293.153C303.239 288.334 307.031 285.486 311.707 283.538Z"/>
	<path fill="#231F20" transform="scale(0.69401 0.69401)" d="M704.484 730.868C708.658 730.799 711.617 732.35 715.267 734.156C721.266 737.123 726.951 740.406 731.784 745.101C734.566 747.804 736.576 750.826 736.557 754.812C736.542 757.97 735.409 758.918 733.256 761.057C732.382 761.531 731.455 762.057 730.5 762.342C727.103 763.358 723.041 761.207 720.293 759.349C713.045 754.448 704.373 744.822 702.785 735.975C702.37 733.66 703.214 732.668 704.484 730.868Z"/>
	<path fill="#231F20" transform="scale(0.69401 0.69401)" d="M196.768 456.65C197.608 456.523 198.575 456.585 199.427 456.568C205.988 456.437 213.613 457.046 218.45 462.11C220.315 464.062 220.897 465.436 220.905 468C219.965 469.409 219.579 469.838 218 470.452C216.627 469.877 215.504 469.611 214.021 469.46L213.25 469.386C206.789 468.686 201.28 469.57 195.411 472.252C191.068 474.516 187.034 477.611 182.383 479.25C181.098 479.703 179.953 479.661 178.75 478.948C177.335 478.109 175.943 476.385 175.637 474.75C175.096 471.862 176.018 468.61 177.719 466.248C182.323 459.854 189.396 457.878 196.768 456.65Z"/>
	<path fill="#231F20" transform="scale(0.69401 0.69401)" d="M242.908 364.553C244.782 364.785 246.553 365.133 248.25 366.002C251.553 367.692 254.504 370.365 257.233 372.843C263.352 378.4 268.791 384.37 273.734 391.009C275.653 393.586 278.311 396.817 279.257 399.935C279.588 401.028 279.371 400.944 278.87 401.87C277.312 402.58 276.951 402.413 275.308 402.17C266.335 397.418 240.873 382.329 237.633 373.991C236.893 372.086 237.474 369.912 238.392 368.175C239.487 366.101 240.704 365.237 242.908 364.553Z"/>
	<path fill="#231F20" transform="scale(0.69401 0.69401)" d="M666.202 789.093C669.57 788.892 672.896 788.995 675.801 790.92C678.406 792.647 680.038 795.356 680.633 798.391C681.416 802.378 680.455 806.196 678.143 809.528C675.144 813.85 671.425 815.443 666.44 816.402C664.137 816.56 661.572 815.952 659.5 814.963C655.625 813.113 652.842 809.427 651.701 805.314C650.909 802.46 651.615 798.4 653.176 795.888C655.788 791.686 661.651 789.984 666.202 789.093Z"/>
	<path fill="#231F20" transform="scale(0.69401 0.69401)" d="M646.938 618.596C651.024 618.179 655.519 618.05 659.446 619.354C663.909 620.836 669.101 623.733 671.117 628.173C672.051 630.229 672.266 632.646 671.412 634.748C670.577 636.806 668.635 638.438 666.561 639.152C663.052 640.36 657.781 637.215 654.637 635.722C651.915 634.786 648.844 634.478 646.039 635.253C641.758 636.435 637.632 639.34 633 638.467C631.418 638.169 630.574 637.053 629.694 635.819C629.507 634.032 629.158 632.077 630.116 630.449C633.767 624.245 640.257 620.51 646.938 618.596Z"/>
	<path fill="#231F20" transform="scale(0.69401 0.69401)" d="M422.986 850.6C424.216 850.541 425.843 850.67 426.993 851.137C428.683 851.822 429.129 852.677 429.871 854.25L429.25 855.502C425.668 857.762 422.599 860.372 421.169 864.514C420.633 866.066 420.039 868.291 420.75 869.848C425.234 868.712 428.956 866.556 433.812 867.296C434.807 867.447 434.675 867.268 435.186 868.01C436.234 869.535 436.438 871.281 436.151 873.077C435.343 878.125 432.435 881.161 428.519 884.086C426.831 885.019 425.152 885.734 423.286 886.242C419.048 887.394 414.327 887.185 410.5 884.942C407.649 883.271 406.37 880.325 405.591 877.236C404.184 871.657 405.313 865.498 408.345 860.649C411.839 855.062 416.638 852.081 422.986 850.6Z"/>
	<path fill="#231F20" transform="scale(0.69401 0.69401)" d="M397.03 184.474L397.999 184.473C400.324 184.517 401.702 185.383 403.25 187.039C403.681 189.864 400.186 194.636 398.828 197.324C392.965 208.927 388.641 222.859 389.815 235.954C390.033 238.392 390.162 241.058 390.948 243.37C391.42 244.759 391.765 246.145 391.153 247.551C390.134 249.889 387.764 250.675 385.544 251.502C383.67 250.736 382.82 249.962 381.876 248.147C380.593 245.68 379.977 242.935 379.25 240.27C376.649 230.738 376.056 222.046 379.19 212.516C381.512 205.455 384.886 199.427 388.942 193.237C391.33 189.593 392.979 186.507 397.03 184.474Z"/>
	<path fill="#231F20" transform="scale(0.69401 0.69401)" d="M654.955 197.568L659.272 197.263C663.154 197.257 665.752 198.628 668.406 201.464C671.722 205.006 672.701 208.632 672.542 213.373C672.27 221.511 667.968 229.724 662.075 235.213C657.829 239.167 653.173 239.672 647.67 239.485C644.862 238.765 641.829 237.154 639.477 235.487C635.334 232.549 632.077 228.077 631.457 222.953C630.77 217.275 633.426 211.676 636.844 207.287C638.997 204.523 641.755 201.687 645.467 201.426C647.128 201.309 647.976 201.872 649.097 203L649.75 203.738C649.836 202.92 649.891 202.008 650.168 201.229C650.862 199.278 653.246 198.393 654.955 197.568Z"/>
	<path fill="#FEFEFE" transform="scale(0.69401 0.69401)" d="M649.525 204.318L649.594 204.487C650.985 208.043 653.232 208.993 654.941 211.927C655.656 213.156 655.596 215.167 655.207 216.487C654.516 218.832 652.991 219.907 650.93 221.012C647.977 220.286 646.331 218.981 644.093 216.939C645.393 212.629 647.998 209.157 649.344 204.918L649.525 204.318Z"/>
	<path fill="#231F20" transform="scale(0.69401 0.69401)" d="M455.815 135.71C461.227 135.832 466.611 136.262 471.919 137.375C473.264 137.656 475.403 138.034 476.5 138.933C477.503 139.755 477.894 140.731 478.029 142C478.215 143.736 477.449 144.933 476.444 146.25C474.239 147.851 469.45 146.895 466.73 146.776C444.174 145.788 419.986 156.968 403.602 172.033C398.153 177.044 392.463 182.518 387.955 188.391C373.649 207.024 366.534 230.95 365.604 254.248C364.49 282.162 374.374 311.863 393.382 332.4C393.909 334.355 393.875 334.783 393.365 336.75C392.307 337.83 391.933 338.488 390.313 338.699C387.117 339.115 383.17 335.915 380.825 333.934C361.527 317.631 351.36 286.629 349.626 261.995C347.448 231.066 358.021 199.852 378.458 176.527C398.568 153.574 425.039 137.652 455.815 135.71Z"/>
	<path fill="#231F20" transform="scale(0.69401 0.69401)" d="M770.065 560.516C772.428 560.495 774.77 560.921 777 561.687C785.749 564.693 792.931 570.68 796.907 579.1C803.444 592.941 795.371 606.487 786.051 616.541C772.658 630.989 754.427 640.86 737.921 651.282C702.417 673.701 669.851 701.272 648.122 737.816C642.333 747.553 637.733 758.029 633.542 768.537C628.46 781.278 625.344 794.638 623.784 808.25C622.939 815.625 623.679 824.609 621.112 831.503L620.884 832.094L619.275 831.791C617.69 831.34 616.756 830.055 616.028 828.662C608.396 814.064 611.815 791.572 616.422 776.5C621.317 760.481 628.587 746.779 637.107 732.503C652.959 705.942 672.397 681.97 695.699 661.607C703.884 654.454 712.649 647.419 721.642 641.298L749.882 622.933C759.67 616.468 770.437 610.137 777.913 600.956C780.172 598.183 782.31 595.381 783.307 591.888C784.119 589.045 783.698 585.917 782.151 583.403C779.119 578.476 774.493 578.156 769.53 576.78C767.061 576.095 765.6 574.628 764.364 572.32C763.409 570.536 762.936 567.92 763.636 565.963C764.65 563.131 767.485 561.599 770.065 560.516Z"/>
	<path fill="#231F20" transform="scale(0.69401 0.69401)" d="M578.584 645.352L579.67 645.414C586.556 646.392 592.62 652.928 596.413 658.381C603.804 669.007 606.75 683.924 606.709 696.617C606.604 729.912 589.799 760.149 569.763 785.75C559.58 798.761 547.508 811.573 540.889 826.902C538.621 832.154 537.317 837.887 536.286 843.497C532.692 863.046 532.64 884.284 537.009 903.672C537.882 907.548 538.887 911.69 540.468 915.342C542.475 919.978 547.429 923.97 545.896 929.586C545.285 931.824 543.881 933.585 541.823 934.682C540.203 935.545 537.66 935.901 535.918 935.236C532.62 933.977 531.555 930.73 529.396 928.258C526.379 924.804 522.992 921.686 520.054 918.146C512.441 908.973 505.738 898.506 500.9 887.598C486.107 854.245 486.812 813.105 501.252 779.687C504.131 773.023 508.369 767.038 511.799 760.658C515.475 753.821 518.256 746.581 521.06 739.357C526.241 722.806 531.836 706.434 530.479 688.781C530.156 684.575 527.917 680.546 527.685 676.5C527.549 674.138 528.914 671.58 530.571 669.971C532.32 668.273 535.307 667.172 537.75 667.435C539.708 667.646 540.909 668.78 541.997 670.317C545.54 675.32 546.665 682.903 547.147 688.909C549.177 714.196 539.623 740.868 529.101 763.42C521.359 780.013 513.242 795.197 509.776 813.459C506.372 831.397 507.629 849.264 512.054 866.863C512.983 870.56 514.054 875.485 516.212 878.649C515.727 859.717 517.295 839.788 524.374 822.069C529.863 808.33 538.517 797.248 547.545 785.718C566.01 762.134 586.205 736.533 589.343 705.625C590.593 693.309 590.407 677.991 584.174 666.867C582.605 664.066 580.083 661.748 578.084 659.246C575.536 656.058 574.151 653.697 574.646 649.542C575.745 647.652 576.807 646.616 578.584 645.352Z"/>
	<path fill="#231F20" transform="scale(0.69401 0.69401)" d="M547.284 84.5004C548.529 84.4221 549.812 84.3583 550.985 84.8567C555.153 86.6276 559.526 91.2107 562.836 94.2574C577.592 107.838 591.56 122.305 598.477 141.527C615.978 190.164 576.423 220.599 544.789 249.887C528.044 265.39 510.26 282.447 500.625 303.528C499.461 306.075 496.707 312.269 496.941 315C497.021 315.931 497.949 317.717 498.295 318.649C498.157 319.525 498.04 320.195 497.539 320.947C496.757 322.121 495.122 323.712 493.599 323.763C492.447 323.802 491.14 322.806 490.405 321.996C486.125 317.285 486.721 310.69 487.639 304.906C488.715 298.136 491.494 291.465 494.539 285.355C500.224 273.945 508.317 264.106 516.921 254.793C532.461 237.974 550.177 223.339 565.282 206.074C574.382 195.673 583.574 183.762 584.563 169.422C585.678 153.263 579.227 137.767 568.676 125.738C569.345 138.019 567.108 149.37 562.372 160.649C549.07 188.002 521.85 196.923 498.75 213.617C484.749 223.735 472.671 237.128 464.324 252.257C453.143 272.524 447.211 295.899 447.065 319.03C447.016 326.815 447.663 334.852 448.515 342.582C449.049 347.414 450.217 352.156 451.197 356.912C451.63 359.01 452.375 361.455 451.457 363.5C450.853 364.843 450.063 365.113 448.75 365.485C446.822 365.101 445.714 363.43 444.434 362.067C441.761 359.221 440.329 356.581 438.864 352.999C430.249 331.929 429.544 309.831 433.572 287.601C440.712 248.205 463.378 214.906 496.992 193.382C515.485 181.541 537.95 173.237 546.952 151.442C552.48 138.058 552.497 121.957 545.503 109.078C543.551 105.485 539.959 102.238 538.569 98.514C537.533 95.7386 537.996 93.3099 539.224 90.6582C540.805 87.2436 543.987 85.7658 547.284 84.5004Z"/>
	<path fill="#231F20" transform="scale(0.69401 0.69401)" d="M746.217 243.501L748.244 243.825C755.318 245.337 763.186 260.229 766.92 266.063L777.115 281.747L790.156 279.059C811.57 276.343 834.431 284.056 851.291 297.172C876 316.393 894.608 346.067 898.284 377.518C900.277 394.572 897.565 416.615 884.793 429.303C879.161 434.897 872.686 439.089 867.744 445.522C861.371 453.818 854.727 466.463 853.204 476.896C852.59 481.106 852.945 485.307 853.449 489.5C853.868 492.982 854.562 496.379 855.543 499.75C856.578 503.307 858.388 506.828 857.671 510.626L857.54 511.25C857.43 511.802 857.35 512.341 857.119 512.86C856.432 514.404 854.592 515.907 853.062 516.578C848.798 518.448 843.6 519.514 839.096 520.795L815.436 527.888L692.965 572.568L636.998 596.256L523.56 652.144L431.901 698.08L397.225 715.967C395.738 716.761 391.661 718.368 390.668 719.486C389.527 720.771 388.542 723.593 387.664 725.17L374.039 750.356L355.653 784.084L341.695 811.49C345.093 809.605 348.606 807.655 352.288 806.391C356.63 804.901 361.412 804.324 365.916 803.471L390.33 798.679C402.616 796.042 414.989 792.07 426.5 787.031C432.513 784.399 438.422 781.557 444.094 778.245C447.572 776.213 451.008 773.594 454.617 771.853C455.601 771.378 456.439 771.439 457.5 771.51C458.756 772.503 458.738 772.424 458.994 774C457.265 776.733 454.709 779.02 452.435 781.301C448.204 785.543 443.632 789.025 438.859 792.615C433.036 796.995 427.951 800.749 421.378 803.981C397.95 816.109 369.496 819.659 343.882 824.606L334.328 826.836C333.431 827.028 331.813 827.562 330.974 827.49C329.9 827.398 327.759 826.033 326.705 825.557C321.239 823.088 313.792 822.348 307.875 821.446L219.373 809.223C215.794 805.851 212.944 801.196 209.792 797.367C186.915 769.582 166.788 739.173 153.482 705.627C146.383 687.73 141.398 668.608 135.884 650.14L129.051 626.195C128.292 623.108 127.196 619.871 126.838 616.712C126.67 615.23 126.644 613.107 127.341 611.745C128.479 609.524 131.464 607.593 133.047 605.49L168.375 560.234L224.35 497.855C227 494.948 236.589 482.666 239.672 481.639C249.542 478.351 259.118 474.085 268.648 469.933L312.419 449.794L403.99 404.703L487.917 363.146L537.653 337.74L642.039 289.763L732.73 249.566C735.117 248.631 737.817 247.857 740.069 246.645C742.271 245.46 743.652 244.118 746.217 243.501Z"/>
	<path fill="#FEFEFE" transform="scale(0.69401 0.69401)" d="M290.323 517.82C292.726 514.927 295.086 513.078 298.399 511.251C296.731 514.433 295.241 517.02 292.396 519.329L290.323 517.82Z"/>
	<path fill="#FEFEFE" transform="scale(0.69401 0.69401)" d="M323.434 745.952C324.875 745.828 324.877 745.926 326.087 746.75L326.008 748.25C325.367 749.057 324.853 749.637 323.932 750.135C319.857 752.336 315.346 753.911 311.101 755.769L289.197 765.523L256.663 780.571C255.731 780.859 255.543 781.124 254.605 780.75C258.987 777.584 264.28 775.21 269.105 772.766L293.306 760.827L323.434 745.952Z"/>
	<path fill="#FEFEFE" transform="scale(0.69401 0.69401)" d="M154.011 651.409C160.787 659.869 165.942 669.658 170.861 679.275L186.495 712C194.477 729.941 202.918 748.135 208.559 766.966C189.307 742.948 175.143 715.767 165.1 686.736L154.011 651.409Z"/>
	<path fill="#FEFEFE" transform="scale(0.69401 0.69401)" d="M747.057 268.449L759.913 288.518C743.33 296 731.911 312.625 725.042 328.937C722.236 335.601 720.667 342.266 719.001 349.261C717.587 355.197 715.89 361.455 715.245 367.522C713.361 385.234 716.582 404.057 723.36 420.502C734.912 448.532 757.406 471.859 781.864 489.115C792.758 496.802 803.974 503.444 816.286 508.601L803.604 512.497C797.89 513.788 791.173 515.836 785.302 514.689L784.75 514.57C781.222 513.9 777.947 512.311 774.787 510.645C766.093 506.061 758.744 500.034 751.5 493.474C728.285 472.452 709.892 444.755 700.807 414.635C696.814 401.399 695.562 387.316 693.56 373.672L692.436 365.25C692.322 364.336 691.875 362.815 691.974 361.938C692.092 360.893 693.277 358.866 693.756 357.861C695.875 353.407 698.36 349.208 700.819 344.941L724.321 305.559C732.052 293.243 740.172 281.275 747.057 268.449Z"/>
	<path fill="#FEFEFE" transform="scale(0.69401 0.69401)" d="M792.731 297.671C807.276 296.375 821.296 299.499 833.664 307.378C856.029 321.624 873.458 344.684 879.066 370.938C881.544 382.534 881.887 401.007 874.96 411.188L874.401 411.983C871.299 416.462 866.917 419.614 863.038 423.369C858.273 427.984 853.9 433.129 850.193 438.631C842.94 449.395 835.796 463.571 834.498 476.664C833.764 484.069 834.63 491.076 836.065 498.317L826.737 494.015C814.888 488.247 803.036 482.489 792.25 474.838C771.736 460.287 751.415 440.124 741.105 416.861C737.597 408.946 735.352 400.342 733.975 391.805C731.297 375.195 734.278 356.739 739.579 340.961C742.074 333.536 744.98 326.437 749.665 320.102C759.869 306.305 776.255 300.114 792.731 297.671Z"/>
	<path fill="#231F20" transform="scale(0.69401 0.69401)" d="M860.145 395.348C861.173 395.496 861.941 395.767 862.909 396.126C863.89 397.251 864.334 397.701 864.488 399.25C862.994 402.99 854.939 409.388 851.334 411.355L849.25 411.411C847.846 409.987 847.709 409.705 847.274 407.75C848.592 403.414 856.352 397.904 860.145 395.348Z"/>
	<path fill="#231F20" transform="scale(0.69401 0.69401)" d="M824.171 436.464C825.726 436.405 826.805 436.338 828.25 437.051C828.837 437.768 829.13 438.132 829.299 439.075C829.689 441.247 826.784 446.357 826.056 448.65C824.892 452.318 824.685 456.305 822.608 459.603L819.5 459.471C818.322 458.504 817.363 457.917 817.175 456.25C816.585 451.039 820.95 440.21 824.171 436.464Z"/>
	<path fill="#231F20" transform="scale(0.69401 0.69401)" d="M766.86 389.883L769.403 390.643C770.332 391.678 771.112 392.175 771.035 393.714C770.891 396.566 768.227 400.697 767.368 403.694C766.315 407.366 766.449 412.214 764.918 415.544C764.487 416.48 763.57 417.179 762.774 417.797C761.789 417.454 760.792 417.177 760.02 416.43C759.059 415.5 758.646 413.795 758.63 412.493C758.553 405.963 762.183 394.451 766.86 389.883Z"/>
	<path fill="#231F20" transform="scale(0.69401 0.69401)" d="M837.587 345.857C838.173 345.993 838.96 346.118 839.5 346.425C840.903 347.224 841.084 348.344 841.489 349.75C840.918 351.463 839.57 352.872 838.523 354.323C837.049 356.367 835.739 358.52 834.447 360.681C831.749 365.194 829.744 370.932 826.637 375.071C825.821 376.158 824.554 376.891 823.42 377.606C822.247 377.273 821.443 376.942 820.437 376.25C819.704 374.788 819.438 374.581 819.852 372.945C821.312 367.18 826.116 361.027 829.263 355.949C830.806 353.458 832.153 350.466 834.152 348.312C835.107 347.283 836.383 346.555 837.587 345.857Z"/>
	<path fill="#231F20" transform="scale(0.69401 0.69401)" d="M796.825 325.988C797.484 325.969 798.338 325.884 799 326.032C800.376 326.339 800.842 327.139 801.54 328.25C801.49 332.085 798.97 332.772 796.228 334.84C791.281 338.57 787.366 342.52 784.45 348.048C783.042 350.717 781.896 353.39 779.829 355.632C778.053 355.623 777.633 355.7 776.065 354.75C775.101 352.972 774.977 352.344 775.469 350.404C776.146 347.728 777.785 345.106 779.266 342.8C783.963 335.49 789.286 330.323 796.825 325.988Z"/>
	<path fill="#FEFEFE" transform="scale(0.69401 0.69401)" d="M723.415 272.476L723.987 273.25L701.554 309.052L686.096 335.032L677.79 348.943C676.658 350.734 675.245 353.324 673.546 354.62C672.022 355.782 669.704 356.574 667.953 357.354L656.523 362.387L620.984 377.459L550.101 409.163L367.277 499.271L276.41 546.845L276.171 546.25C283.719 538.476 289.752 529.674 296.944 521.628L353.397 461.424L365.083 449.407C367.319 447.059 369.539 444.313 372.057 442.298C374.16 440.616 376.849 439.542 379.169 438.182C388.686 432.6 398.642 427.933 408.5 422.994L457.811 398.014L547.93 352.854L622.403 318.34L676.208 293.25L723.415 272.476Z"/>
	<path fill="#FEFEFE" transform="scale(0.69401 0.69401)" d="M675.212 373.245L679.858 404.031C687.506 441.859 709.748 479.572 738.255 505.495C746.878 513.336 756.109 519.681 765.772 526.122L653.161 569.688L559.662 614.451L477.463 655.065L416.192 685.313C413.959 686.47 411.938 687.974 409.712 689.131L372.812 708.711L241.168 776.817L230.373 782.87C229.061 771.819 225.491 761.417 221.641 751.014L203.061 706.69C196.173 691.096 189.341 674.959 180.952 660.12L166.728 636.974L156.432 622.355L675.212 373.245Z"/>
	<path fill="#231F20" transform="scale(0.69401 0.69401)" d="M725.958 517.178C730.363 517.47 729.972 520.08 733.046 522.304C734.098 523.065 734.637 523.549 735.318 524.65C735.463 526.837 735.5 527.232 734.469 529.141C733.096 529.064 731.531 529.005 730.25 528.456C727.912 527.454 725.355 524.83 724.701 522.346C724.139 520.212 725.046 519.005 725.958 517.178Z"/>
	<path fill="#231F20" transform="scale(0.69401 0.69401)" d="M244.064 612.277C245.076 612.404 245.911 612.771 246.849 613.154C248.779 615.455 249.407 618.246 250.469 621C251.687 624.158 253.279 627.249 254.273 630.484C255.005 632.866 255.051 634.95 253.882 637.184L253.337 636.913C248.026 633.722 244.07 625.758 242.78 619.83C242.124 616.811 242.441 614.88 244.064 612.277Z"/>
	<path fill="#231F20" transform="scale(0.69401 0.69401)" d="M221.864 607.795C222.812 608.056 223.91 608.297 224.696 608.916C227.027 610.753 227.797 616.967 228.684 619.88C230.965 627.368 233.371 634.841 235.031 642.5C235.563 644.958 236.387 647.753 236.503 650.26C236.59 652.126 235.191 653.471 234.054 654.778C232.659 655.078 232.351 655.201 231.021 654.75C228.93 652.212 228.48 648.457 227.742 645.309L224.049 629.5C222.764 624.371 220.884 619.15 220.195 613.911C219.824 611.093 220.147 609.994 221.864 607.795Z"/>
	<path fill="#231F20" transform="scale(0.69401 0.69401)" d="M473.037 565.428C475.09 565.768 476.016 566.072 477.55 567.5C477.846 568.415 477.772 568.979 477.499 569.875C474.987 578.11 467.686 587.19 460.316 591.602C457.058 593.552 453.022 594.974 450.108 597.393C446.357 600.508 444.377 605.472 440.051 607.905C438.55 607.561 437.245 607.499 436.363 606.041C435.365 604.39 434.855 602.343 435.518 600.5C437.851 594.009 447.436 589.379 452.617 585.175C456.062 582.38 459.259 579.231 462.445 576.147C465.65 573.042 469.237 567.333 473.037 565.428Z"/>
	<path fill="#231F20" transform="scale(0.69401 0.69401)" d="M195.893 618.122L197.217 618.782C200.117 622.563 201.395 628.408 202.732 632.922L208.323 651.087L215.904 672.593L225.574 702.787L232.452 722C233.345 724.453 234.933 727.469 235.37 730C235.609 731.382 234.607 732.66 233.897 733.767C232.122 734.685 231.793 735.042 229.75 734.792C228.988 734.232 228.145 733.624 227.637 732.811C225.839 729.929 224.843 725.126 223.579 721.887L209.019 679.5C204.835 666.564 201.111 653.855 198.192 640.563C196.588 633.256 194.662 625.627 195.893 618.122Z"/>
	<path fill="#231F20" transform="scale(0.69401 0.69401)" d="M476.512 530.502C477.847 530.381 479.165 530.476 480.5 530.542C481.25 531.019 481.991 531.454 482.537 532.173C483.324 533.208 483.693 534.458 483.451 535.75C482.956 538.399 480.317 540.5 478.25 541.933C475.891 543.568 474.835 545.694 473.308 548.026C471.013 551.53 468.8 555.172 466.262 558.503C463.578 562.026 460.286 565.058 457.484 568.488L443.862 586.377C438.129 593.802 432.268 600.7 427.146 608.604C423.827 613.727 424.158 631.271 424.633 637.926C424.889 641.508 426.295 646.959 425.326 650.412C425.002 651.566 425.125 651.428 425.536 652.5C424.234 655.454 424.998 659.346 424.093 662.543L423.25 662.954C421.98 662.808 420.685 662.65 419.679 661.772C412.939 655.887 413.338 640.757 413.052 632.641L401.074 637.907C395.483 640.067 385.684 644.194 379.75 642.912C376.84 642.284 374.381 640.681 372.83 638.145C371.562 636.072 370.951 633.487 371.707 631.097C372.18 629.599 373.507 628.353 374.919 627.734C377.963 626.399 380.185 628.434 383.011 629.415C383.803 629.689 386.598 630.592 387.384 630.477C389.645 630.146 392.115 627.717 394.5 627.532C395.074 627.488 396.236 628.082 396.75 627.917C397.124 627.797 398.328 626.345 398.558 626C399.418 624.705 399.778 622.924 400.622 621.52L412.219 603.436C416.964 596.66 421.941 589.586 427.441 583.389L446.949 563.092C454.479 554.496 460.523 544.575 468.774 536.647C471.196 534.32 473.467 532.009 476.512 530.502Z"/>
	<path fill="#231F20" transform="scale(0.69401 0.69401)" d="M552.731 466.892L553.404 466.914C554.588 467.029 555.284 467.393 556.047 468.314C559.658 472.678 559.587 479.769 560.134 485.196C561.177 495.556 562.032 505.466 561.369 515.893L580.822 506.424C585.27 503.784 596.53 497.623 597.575 492.118C598.456 487.475 590.303 488.36 588.036 485.5C587.663 483.824 587.516 483.668 588.25 482.029C589.251 481.405 589.989 481.39 591.141 481.395C595.784 481.413 599.446 483.008 602.606 486.454C605.244 489.33 605.803 491.457 605.516 495.25C604.644 506.773 581.787 525.485 571.714 530.43C568.975 531.775 554.515 536.583 553.564 537.616C552.588 538.677 551.862 540.766 551.251 542.082L546.79 550.993L535.371 570.25C515.603 600.726 490.527 628.438 463.317 652.369C459.448 655.609 455.54 659.034 451.048 661.392C447.303 663.358 441.809 665.554 437.635 664.063C435.108 663.159 432.656 659.833 431.567 657.429C430.436 654.931 431.067 650.902 431.444 648.25C433.584 633.209 442.818 619.838 451.578 607.871L463.605 591.984C467.909 586.836 473.071 582.146 476.814 576.538C479.934 571.865 481.551 565.851 483.529 560.608C481.555 561.028 478.255 561.57 476.548 560.387C475.289 559.514 473.988 557.812 473.802 556.25C473.528 553.95 474.499 551.804 475.925 550.055C477.26 548.418 478.677 547.611 480.75 547.382C482.36 547.77 483.062 548.722 484.126 549.898L484.584 550.411L486.307 549.045C487.196 548.288 491.298 544.394 491.475 543.527C491.701 542.412 490.535 538.635 490.393 537.339C490.131 534.934 490.367 532.461 490.542 530.058C491.022 523.495 490.642 514.956 496.316 510.464C498.038 509.101 499.72 509.386 501.75 509.625C503.871 511.266 504.859 513.45 505.485 516.024L505.653 516.75C507.003 522.366 505.459 528.663 504.776 534.361C508.138 532.277 510.759 529.702 513.729 527.129C517.545 523.825 520.544 521.459 523.121 517.075C521.987 514.599 520.253 512.215 519.359 509.661C518.439 507.036 517.112 500.982 518.461 498.5C519.148 497.237 520.019 496.559 521.407 496.25C524.608 495.538 526.53 496.743 529.077 498.524L529.616 498.907C530.665 496.873 531.864 493.72 534.014 492.663C534.315 492.515 534.723 492.513 534.931 492.25C535.291 491.797 534.93 491.094 534.936 490.516C534.953 488.631 534.947 486.171 536.42 484.75C537.689 483.526 540.269 483.033 541.969 483.36C543.578 483.669 544.396 484.544 545.191 485.87L547.679 489.969C548.092 484.468 546.427 477.256 548.037 472.124C548.936 469.257 550.149 468.308 552.731 466.892Z"/>
	<path fill="#FEFEFE" transform="scale(0.69401 0.69401)" d="M510.553 546.891C514.396 542.769 519.15 539.439 522.761 535.134C524.306 533.292 526.254 528.928 528.25 528.082L529.943 529.51L531.461 531.5C531.111 533.086 528.451 534.489 527.043 535.396C521.432 539.009 516.415 543.741 510.553 546.891Z"/>
	<path fill="#FEFEFE" transform="scale(0.69401 0.69401)" d="M494.469 559.694L499.013 547.222C501.976 546.428 505.202 546.33 508.25 545.682L509.063 546.75L510.553 546.891C508.93 548.842 506.636 550.422 504.676 552.032L494.835 560.25L494.469 559.694Z"/>
	<path fill="#FEFEFE" transform="scale(0.69401 0.69401)" d="M544.34 503.736C545.948 507.438 546.875 511.532 548.192 515.355C548.704 516.84 549.953 519.208 549.842 520.733C549.786 521.502 548.126 522.509 547.513 523.01L542.919 525.447C542.358 517.722 542.914 511.369 544.34 503.736Z"/>
	<path fill="#FEFEFE" transform="scale(0.69401 0.69401)" d="M533.809 546.947L534.349 547.5C529.126 556.678 522.984 565.231 516.838 573.802C507.798 586.411 498.205 598.074 487.847 609.626C475.68 623.195 462.414 636.377 447.431 646.823L446.897 646.5C452.225 632.136 462.237 618.667 471.854 606.827C489.679 584.883 510.77 563.462 533.809 546.947Z"/>
</svg>
