<?xml version="1.0" encoding="utf-8" ?>
<svg xmlns="http://www.w3.org/2000/svg" xmlns:xlink="http://www.w3.org/1999/xlink" width="710" height="710">
	<path fill="white" transform="scale(0.69401 0.69401)" d="M0 0L0 1024L1024 1024L1024 0L0 0Z"/>
	<path transform="scale(0.69401 0.69401)" d="M638.058 341.344C633.559 302.805 609.64 272.607 585.874 243.608C575.033 230.38 564.373 217.505 557.724 201.523C552.821 189.74 550.492 176.184 549.569 163.498C546.646 123.338 556.929 82.1269 572.223 45.2384C572.743 51.0735 574.025 57.0334 575.123 62.7959C579.538 85.963 587.229 110.338 602.558 128.692C606.755 133.716 611.612 138.114 616.006 142.956C623.64 151.367 629.832 161.893 633.77 172.55C641.45 193.335 641.779 218.902 634.644 239.907C633.564 243.088 632.206 246.202 630.81 249.255C630.517 249.896 629.156 252.244 629.152 252.802C629.15 253.152 629.62 253.323 629.851 253.586C637.385 262.217 644.916 271.92 647.914 283.167C650.546 293.041 651.536 304.218 649.448 314.25C647.424 323.978 643.004 332.806 638.058 341.344ZM573.527 138.286C575.021 155.614 577.175 172.12 584.564 188.104C588.376 196.35 593.417 203.776 598.75 211.089C601.47 214.819 604.826 220.687 608.371 223.496L608.862 223.825L609.763 222.824C613.358 207.661 611.085 192.077 602.814 178.801C598.721 172.23 593.015 167.113 588.04 161.25C582.245 154.421 577.509 146.283 573.527 138.286Z"/>
	<path transform="scale(0.69401 0.69401)" d="M526.876 677.776L596.798 648.758L620.42 639.123C626.702 636.565 633.23 634.172 638.786 630.21L639.364 629.791C637.22 634.939 634.186 639.936 631.557 644.863L597.909 702.158C594.614 707.935 591.719 714.018 589.186 720.166C587.531 724.183 586.24 728.27 584.213 732.128L590.339 689.569L281.403 816.658L291.295 776.082L313.529 766.463C314.26 763.207 314.899 760.141 314.09 756.812C311.979 748.127 306.598 739.13 303.239 730.803C297.003 715.343 292.153 699.536 288.509 683.281C286.006 672.118 283.831 660.75 284.224 649.26C284.489 641.528 285.993 633.807 287.794 626.297C296.455 590.166 318.392 561.359 344.79 536.063L367.987 515.753C368.71 515.07 368.498 515.113 368.514 514.152L369.3 485.527L328.323 498.269C334.27 503.709 341.178 506.953 348.629 509.774C344.517 512.174 340.278 514.34 336.41 517.138C328.127 523.131 321.348 531.13 315.591 539.507C313.037 543.224 310.88 547.398 308.154 550.957C310.496 540.555 310.728 528.748 307.674 518.471C302.428 500.819 290.861 487.301 274.704 478.671C273.799 480.452 274.636 516.797 274.646 521.366L274.655 664.124L274.651 720.814L274.396 753.534C273.648 770.821 271.618 787.976 269.399 805.122C267.621 818.859 265.826 832.564 262.455 846.021C257.25 866.804 248.491 886.553 235.972 903.974C228.374 914.549 220.094 924.337 210.115 932.75C182.28 956.217 145.521 967.539 110.128 973.405L122.226 965.204C149.123 944.186 170.006 911.947 174.04 877.65C177.405 849.037 167.771 817.993 145.714 798.72C138.574 792.481 130.119 788.207 122.293 782.929C109.158 774.07 97.498 761.888 87.7601 749.479C40.9108 689.779 33.5498 605.764 58.158 535.415C61.1884 526.752 65.0129 518.322 68.862 509.997C69.7226 508.136 73.5425 501.852 73.3837 500.285C73.2487 498.953 72.4341 497.151 72.0651 495.82C71.1038 492.352 70.2861 488.788 69.6775 485.24C66.523 466.849 65.6862 448.563 68.0068 430C73.9071 382.8 100.18 338.728 137.736 309.779C132.055 319.288 127.301 329.875 123.969 340.431C119.91 353.288 118.208 368.067 121.847 381.216C123.211 386.147 125.473 390.69 127.838 395.203C132.899 389.644 137.947 384.218 143.64 379.297C166.856 359.226 195.473 345.438 224.66 336.523L273.711 323.805C298.855 317.346 323.63 310.128 348.023 301.206C365.12 294.952 382.946 288.17 397.897 277.63C413.737 266.464 428.078 250.248 438.75 234.113C449.524 217.825 458.388 200.084 462.827 180.977C466.398 165.607 466.976 149.625 465.553 133.946C464.272 119.846 461.263 105.778 458.445 91.9184C468.488 106.629 474.532 124.312 479.128 141.398C486.693 169.522 490.015 199.208 486.982 228.25C484.436 252.62 477.118 277.085 466.885 299.298C463.85 305.884 460.771 312.732 457.104 318.989C416.979 387.476 345.767 403.874 274.543 422.184L274.899 467.196C283.686 466.444 292.534 464.314 301.148 462.483C319.347 458.614 337.054 453.309 354.741 447.587C388.331 436.72 420.989 423.579 453.272 409.321C469.508 402.151 486.111 395.241 501 385.469C506.197 382.058 511.541 378.479 515.75 373.852C517.436 371.998 519.97 368.665 520.206 366.103C520.67 361.045 508.448 345.605 505.249 340.691C501.911 335.562 498.549 330.309 495.881 324.794C491.73 316.218 488.956 306.656 488.591 297.105C487.794 276.263 494.392 255.333 499.793 235.406C506.541 210.515 513.929 184.437 524.726 160.968C530.449 148.526 537.316 135.977 546.721 125.919C544.675 132.806 542.446 139.958 541.19 147.035C538.873 160.078 538.881 173.45 540.039 186.616C541.522 203.481 546.07 220.263 554.602 234.964C565.921 254.468 583.136 269.658 598.128 286.211C609.129 298.358 618.655 311.213 625.213 326.3C629.693 336.607 632.36 346.157 632.985 357.386C634.476 384.161 624.822 406.537 610.514 428.59C604.301 438.165 597.789 447.18 590.173 455.709C591.193 450.017 593.088 444.324 594.6 438.735C598.575 424.04 602.799 408.977 602.955 393.649C603.1 379.509 599.888 366.228 593.062 353.822C587.625 343.941 580.094 335.354 572.748 326.869C558.197 310.061 541.431 292.291 532.71 271.615C526.154 256.074 523.976 238.259 522.985 221.544C520.732 229.952 518.988 238.8 518.514 247.497C518.124 254.641 518.35 261.753 520.032 268.732C524.061 285.441 534.767 300.655 546.415 312.952L565.394 332.16C560.759 339.152 556.839 346.635 552.04 353.5C541.419 368.692 527.309 382.206 511.25 391.518C501.735 397.035 491.751 400.983 481.46 404.76C481.596 407.099 481.674 409.549 482.253 411.826C483.668 417.386 486.22 421.541 486.406 427.57L486.21 469.399L486.482 570.142L486.414 605C486.405 613.93 486.169 623.031 487.367 631.899C488.11 637.4 490.17 641.898 492.64 646.799L484.43 659.643C480.774 664.785 476.35 669.609 471.778 673.957C463.153 682.16 452.341 687.229 442.822 694.249C435.538 699.621 429.237 706.812 422.867 713.236C426.599 702.217 433.827 691.107 442.341 683.205C445.631 680.151 449.419 677.548 453.051 674.916C447.226 671.479 443.67 666.846 441.868 660.352C439.772 652.8 439.93 644.394 439.896 636.61L439.862 611.094L439.593 509.373L439.522 475.575C439.506 470.612 439.909 465.224 439.395 460.302C438.956 456.096 436.993 451.282 434.784 447.71C429.879 439.776 423.339 437.25 414.729 435.224C413.867 446.53 414.443 458.277 414.44 469.64L414.869 543.634L414.988 602.065C414.962 613.424 414.203 625.07 415.255 636.376C416.102 645.474 417.513 655.215 422.356 663.165C426.105 669.319 432.585 672.859 439.446 674.449L440.424 674.667L431.25 681.139C423.091 687.972 417.08 696.827 414.647 707.25C413.571 711.861 413.347 716.7 412.99 721.411L412.624 721.455C401.857 713.981 392.414 706.956 384.154 696.641C375.229 700.636 367.674 706.882 360.869 713.796C347.826 727.047 337.602 742.928 329.354 759.533L526.876 677.776ZM179.341 933.204L179.094 933.432L179.341 933.204C181.629 931.58 183.788 929.074 185.75 927.033C203.918 908.136 214.972 881.901 219.595 856.437C223.946 832.47 222.588 807.514 222.617 783.25L222.681 689.21L222.581 518.959L222.586 437.385C218.553 438.801 214.256 440.084 210.465 442.063C198.018 448.562 186.32 459.832 177.116 470.367C167.538 481.331 158.499 493.912 151.878 506.891C133.74 542.447 128.705 584.621 131.44 623.988C134.094 662.177 146.514 701.122 172.895 729.561C179.69 736.886 187.891 743.127 195.426 749.681C187.358 746.229 179.671 743.195 172.146 738.565C161.916 732.271 152.738 724.031 144.259 715.569C139.829 711.148 135.302 706.734 131.25 701.962C111.722 678.962 98.3784 651.52 91.4071 622.216C79.0222 570.155 90.5828 516.163 118.455 471.125C139.794 436.643 170.624 409.736 208.233 394.25C223.95 387.778 240.125 383.484 256.562 379.359L318.623 364.815C346.965 357.933 377.037 348.012 401.25 331.324C433.65 308.994 457.824 269.47 465.085 231.006C451.486 256.729 437.363 282.612 415.331 302.29C408.385 308.494 400.458 314.4 392.279 318.875C381.424 324.813 369.041 329.114 357.383 333.312L300.781 350.616L240.668 365.918C211.367 374.822 182.813 388.195 159.191 407.916C143.061 421.382 129.555 437.116 117.083 453.933C116.23 449.616 115.058 445.036 116.68 440.753C116.963 440.005 118.078 438.02 118.094 437.35C118.098 437.172 117.893 437.054 117.793 436.906C113.034 429.869 109.482 422.86 106.705 414.813C102.058 401.343 101.886 387.623 102.16 373.552C100.491 377.085 99.5785 381.059 98.6316 384.839C95.5719 397.055 94.5525 409.685 95.8467 422.239C96.8926 432.384 99.6525 444.864 106.272 452.905C108.133 455.166 110.528 456.993 112.782 458.844C112.574 461.255 106.478 469.74 104.889 472.516L98.3103 485.333C86.9712 509.153 79.715 535.536 77.7315 561.858C73.3781 619.63 94.7621 677.519 134.936 719.1C141.729 726.131 149.249 732.906 157.082 738.75C164.587 744.35 172.39 749.172 179.195 755.691C189.726 765.78 197.792 780.829 202.604 794.5C215.706 831.728 209.325 871.382 193.339 906.606L185.098 923.066C183.291 926.328 181.126 929.404 179.536 932.779L179.341 933.204ZM367.488 561.443C346.294 586.586 327.042 617.107 329.702 651.254C330.776 665.026 334.275 677.034 341.031 689.099L343.76 693.424L344.324 692.754C351.572 684.279 361.642 676.165 371.23 670.449C363.928 644.096 365.246 616.533 366.773 589.489L367.743 571.237C367.842 568.11 368.16 564.504 367.488 561.443Z"/>
	<path transform="scale(0.69401 0.69401)" d="M761.92 124.248L762.358 124.003L761.92 124.248Z"/>
	<path transform="scale(0.69401 0.69401)" d="M693.195 197.015L691.78 198.721C688.999 202.365 686.776 206.94 684.599 211.002L671.679 236.992C670.038 240.387 665.469 247.744 666.077 251.354C668.514 265.839 666.42 282.779 662.575 296.873C660.072 291.25 658.301 285.221 655.994 279.5C651.88 269.298 645.576 258.47 637.141 251.289C641.06 244.199 647.458 238.617 651.889 231.944C653.538 229.461 654.446 226.429 655.73 223.742C663.176 208.156 673.904 193.89 685.546 181.219C702.551 162.712 721.326 147.567 742.937 134.701C748.863 131.173 755.428 126.525 761.92 124.248C756.473 130.131 750.397 135.39 745.183 141.496C716.318 175.3 697.156 215.621 698.892 260.797C699.496 276.532 701.346 296.642 713.301 308.067L657.248 333.888C664.871 318.017 669.649 300.867 672.485 283.5C675.237 266.641 676.413 249.485 680.131 232.78C682.027 224.262 685.365 215.584 688.706 207.544C690.129 204.118 692.115 200.543 693.195 197.015L693.627 196.285L693.89 196.002L693.627 196.285L693.195 197.015ZM694.137 195.25L694.563 195.25L694.137 195.25Z"/>
	<path transform="scale(0.69401 0.69401)" d="M901.821 396.797C908.444 400.832 914.742 406.682 920.561 411.826C944.719 433.18 965.872 458.278 973.711 490.267C982.48 526.048 975.476 563.411 956.519 594.645C940.295 621.374 913.066 643.261 882.52 650.624C866.752 654.425 850.821 654.172 836.046 647.044C834.873 646.478 829.938 643.275 829.04 643.246C827.724 643.203 822.304 646.322 820.75 646.984L797.854 656.026L676.468 705.244L647.041 716.979C642.586 718.769 637.253 720.508 633.133 722.941C628.304 725.793 623.441 734.055 620.512 738.79C605.467 763.108 602.898 791.451 609.477 818.904C613.936 837.51 623.352 854.5 633.336 870.66L646.393 889.98L656.109 903.227C657.138 904.64 659.267 907.177 659.552 908.881C652.248 905.711 645.661 901.323 639.064 896.909C625.049 887.532 612.605 876.705 600.844 864.653C581.635 844.969 564.848 822.251 554.674 796.531C550.025 784.78 546.734 772.025 544.701 759.546L459.444 795.346L369.635 832.701L337.396 846.065C335.456 846.851 329.307 848.444 328.384 850.093C327.178 852.248 326.535 855.221 325.601 857.557C323.656 862.421 321.404 867.149 318.868 871.731C301.127 903.788 274.306 926.807 240.734 941.064L199.943 954.096C209.108 948.578 218.293 942.897 226.746 936.317C247.146 920.437 263.854 900.136 274.509 876.5C279.384 865.684 282.743 854.255 285.603 842.762C287.076 836.843 288.399 830.573 288.815 824.482L574.294 707.374C573.234 713 571.998 718.717 571.591 724.437C569.947 747.549 575.19 771.365 584.752 792.367L584.959 792.266C584.338 783.574 583.589 774.71 584.118 766C585.606 741.47 597.626 718.529 612.998 699.828L622.488 688.759C624.173 686.905 625.88 684.772 628.111 683.565C630.818 682.1 634.128 681.332 637.011 680.25L649.225 675.351L700.525 654.718L849.775 594.643C863.759 603.789 882.144 607.596 898.593 604.123C914.938 600.672 930.021 590.44 939.009 576.344C950.886 557.717 954.691 536.587 954.488 514.847C954.431 508.775 954.329 502.468 953.13 496.5C952.893 503.347 952.897 510.373 952.144 517.181C949.77 538.667 942.401 561.719 926.164 576.75C915 587.084 899.565 592.982 884.309 592.295C865.594 591.451 849.436 583.671 836.919 569.795C831.95 564.286 828.056 557.942 824.595 551.408C818.094 539.134 814.378 525.952 811.831 512.36C805.733 479.819 807.586 446.224 807.579 413.26L807.357 321.462C797.017 333.866 787.583 347.334 783.524 363.179C781.723 370.208 781.787 377.067 781.776 384.253L781.785 405.247L781.871 465.042L781.787 495.302C781.767 501.284 781.506 507.374 782.025 513.333C782.77 521.878 785.683 528.096 791.741 534.143C777.28 537.163 764.902 545.803 754.739 556.25L739.472 573.164C730.971 581.861 721.027 590.182 710.339 595.985C717.564 585.036 723.825 573.861 728.012 561.363C730.26 554.651 731.667 547.632 732.918 540.677C734.608 531.285 734.594 521.604 734.595 512.096L734.564 484.163L734.542 395.79L734.588 356.275C734.619 349.488 735.499 341.683 734.309 335.036C733.411 330.026 730.279 322.848 726.027 319.947C723.089 317.943 719.127 317.898 715.719 318.25L712.823 318.523L712.609 318.322L781.649 285.624C775.168 296.454 774.029 308.284 773.757 320.685C783.079 305.636 794.903 293.593 807.121 280.943L838.994 248.365C846.557 263.356 857.008 272.517 872.792 278.353C869.229 281.278 865.418 284.162 862.403 287.664C854.43 296.925 852.023 308.837 850.85 320.681C848.479 344.608 849.094 368.947 849.25 392.973L850.578 450.945C851.392 465.312 852.546 480.128 856.293 494.068C858.611 502.692 862.64 510.791 868.275 517.725C876.061 527.304 887.087 532.814 899.271 534.015C907.138 534.791 915.617 531.699 921.641 526.652C930.029 519.625 935.581 506.968 936.461 496.149C938.729 468.245 927.03 440.421 913.597 416.571C909.94 410.077 904.76 403.591 901.821 396.797Z"/>
	<path transform="scale(0.69401 0.69401)" d="M765.35 618.25L626.762 673.836C639.317 651.876 650.993 630.512 656.761 605.623C660.336 590.2 662.398 575.038 663.278 559.25L663.724 508.13L663.661 439.794L663.618 396L663.821 377.608C663.838 373.35 663.907 368.679 662.898 364.53C661.737 359.753 658.674 352.22 653.497 350.651C652.316 350.293 649.88 350.433 648.632 350.528C647.203 350.638 645.466 351.245 644.25 350.505C644.366 350.207 644.391 349.855 644.599 349.613C645.131 348.992 647.027 348.24 647.838 347.83L657.171 343.348L707.009 320.473L707.807 320.659L707.864 462.914L707.993 514.439C708.024 526.354 708.585 538.541 706.991 550.375C705.281 563.078 702.797 576.163 698.613 588.306C695.453 597.473 691.156 606.214 686.902 614.91L749.5 589.555L783.828 575.7C789.249 573.461 795.278 571.56 800.307 568.539C805.587 565.368 810.012 559.636 811.339 553.609L811.485 552.898C818.012 567.845 826.02 578.761 839.525 588.195L765.35 618.25Z"/>
	<path transform="scale(0.69401 0.69401)" d="M476.836 685.228L477.005 684.821C479.87 678.26 485.418 671.576 489.637 665.761C498.66 653.323 509.547 639.012 513.96 624.146C517.445 612.405 516.644 599.584 512.302 588.172C510.426 583.241 507.516 578.601 504.25 574.476C502.012 571.648 499.346 569.14 497.563 565.988C505.439 561.882 514.008 558.903 522.037 555.018C534.672 548.903 545.97 540.655 556.81 531.815C554.612 537.22 552.068 544.37 551.659 550.25C551.298 555.46 553.648 561.977 554.925 567.003C557.236 576.093 558.879 585.799 558.475 595.19C558.29 599.476 557.392 603.848 556.611 608.062L600.639 592.144C595.092 562.4 594.641 533.497 595.541 503.366L501.205 531.02C502.081 524.293 503.927 517.681 504.456 510.911C505.71 494.836 504.904 478.065 504.929 461.919L504.794 436.391C504.724 432.003 504.951 427.218 504.296 422.877C503.891 420.193 503.046 418.037 501.414 415.84C499.552 413.334 496.885 411.311 494.488 409.334C501.75 407.476 508.01 404.39 514.547 400.804C531.408 391.555 545.466 379.207 556.866 363.736L573.327 337.968C573.903 348.454 575.242 358.872 577.916 369.049C579.659 375.684 582.084 382.011 584.548 388.399C587.944 397.203 591.896 406.585 589.533 416.152C587.63 423.858 582.481 429.614 578.882 436.414L578.501 435.774C573.943 428.197 566.604 421.403 559.795 415.855C556.661 413.302 553.31 410.529 549.705 408.666L549.738 433.602L549.562 458.376C549.591 464.086 549.396 470.077 550.806 475.644L655.742 446.157C650.661 453.265 646.605 459.97 643.687 468.252C637.917 484.633 637.034 502.648 636.739 519.869C636.537 531.628 636.625 543.632 638.64 555.25C640.627 566.713 644.353 574.686 651.959 583.421C641.334 594.899 634.213 610.908 630.182 625.913C626.273 624.529 623.164 623.851 618.984 624.421C615.147 624.944 611.348 626.128 607.607 627.108C593.522 630.798 580.085 636.583 566.449 641.648C547.977 648.509 528.6 654.996 510.823 663.47C502.041 667.656 493.74 673.207 485.772 678.772C482.923 680.761 479.932 683.818 476.836 685.228Z"/>
	<path transform="scale(0.69401 0.69401)" d="M901.821 396.797L901.585 396.589L901.821 396.797Z"/>
	<path transform="scale(0.69401 0.69401)" d="M161.801 508.171C162.606 504.708 164.832 501.649 166.677 498.665C176.672 482.496 189.508 469.216 204.137 457.191C207.726 454.24 211.316 450.976 215.25 448.496L216.459 447.78C215.701 454.835 215.237 467.903 209.488 472.656C205.392 476.042 199.959 478.131 195.184 480.415C190.839 482.494 186.62 484.976 182.751 487.849C177.533 491.722 172.736 496.293 168.314 501.047C166.28 503.235 164.16 506.464 161.801 508.171Z"/>
	<path transform="scale(0.69401 0.69401)" d="M161.608 508.453L161.801 508.171L161.608 508.453Z"/>
	<path transform="scale(0.69401 0.69401)" d="M476.613 685.411L476.836 685.228L476.613 685.411Z"/>
</svg>
