<?xml version="1.0" encoding="utf-8" ?>
<svg xmlns="http://www.w3.org/2000/svg" xmlns:xlink="http://www.w3.org/1999/xlink" width="710" height="710">
	<path fill="white" transform="scale(0.69401 0.69401)" d="M0 -0L1024 0L1024 1024L-0 1024L0 -0Z"/>
	<path transform="scale(0.69401 0.69401)" d="M508.572 41.6444L514 41.4932C521.567 41.7704 529.102 45.6911 534.171 51.1962C539.382 56.8549 542.224 64.13 541.785 71.8542C541.217 81.8667 536.311 88.5725 529.003 94.9858C529.056 101.295 528.544 143.494 529.721 145.255C535.753 154.289 543.2 162.942 550.221 171.235C587.29 215.024 634.081 249.468 692 258.347C705.195 260.37 718.578 260.425 731.894 260.44L770.549 260.438L815.288 260.432L827.483 260.432C829.596 260.44 832.256 260.217 834.283 260.741C837.822 261.658 840.42 264.546 841.235 268.057C841.757 270.306 841.469 272.884 841.418 275.181L841.342 287.062C841.947 309.683 850.122 329.136 865.823 345.438C883.833 364.138 907.217 376.821 930.949 386.795C938.65 390.032 946.496 392.79 954.462 395.297C959.192 396.785 964.609 397.768 969 400.025C971.089 401.099 972.856 402.491 974.005 404.579C976.686 409.453 975.393 467.336 975.398 479.42L975.477 661.261L975.511 699.17L975.502 709.531C975.492 711.313 975.723 713.482 975.187 715.172C974.723 716.633 973.694 717.77 972.427 718.599C969.79 720.323 966.145 721.071 963.227 722.339L942.355 732.04C916.628 744.45 889.02 760.001 869.81 781.504C856.851 796.011 847.596 813.757 843.209 832.716C841.969 838.077 841.394 843.685 841.052 849.172L840.662 861.952C840.64 863.911 840.921 866.746 840.162 868.572C839.196 870.897 836.741 872.618 834.311 873.053C831.253 873.6 827.529 873.265 824.399 873.278L803.376 873.304L746.62 873.314C729.24 873.32 711.956 872.823 694.741 875.695C650.347 883.102 610.121 903.203 574.46 930.242L549.902 950.777L533.389 965.38C528.173 970.004 523.151 975.694 516.437 978.015C515.117 978.399 513.785 978.488 512.415 978.512C509.825 978.557 506.387 977.797 504.166 976.439C500.643 974.286 497.432 971 494.338 968.255L479.401 955.153C462.316 940.244 444.899 925.585 425.716 913.408C404.906 900.198 382.574 889.683 358.911 882.722C341.7 877.659 323.795 874.981 305.921 873.838C295.247 873.156 284.335 873.58 273.635 873.595L220.165 873.569L201.969 873.521C198.674 873.51 195.008 873.801 191.757 873.338C189.669 873.04 188.164 872.388 186.67 870.863C182.63 866.74 184.451 858.265 184.407 853C183.918 794.393 130.722 754.835 83.5452 730.363L66.1333 721.825C61.6904 719.788 55.137 718.006 51.7475 714.433C50.0951 712.692 49.5922 710.543 49.4585 708.212C48.8295 697.25 49.4025 685.933 49.4189 674.941L49.4328 610.307L49.4362 416.122C49.463 410.736 48.7136 404.984 53.4217 401.225C55.9463 399.209 59.3194 398.412 62.357 397.457L77.8187 392.574C105.731 382.959 135.103 368.528 156.137 347.504C177.104 326.547 183.954 301.9 184.062 272.937C184.082 267.659 185.068 262.238 191.015 260.75C196.385 259.406 203.496 260.17 209.061 260.163L242.732 260.163L285.128 260.285C294.8 260.312 304.506 260.518 314.161 259.857C345.67 257.7 375.801 248.589 403.25 232.878C423.001 221.574 441.013 206.703 457.126 190.688C469.473 178.417 481.397 164.319 491.616 150.25C492.462 149.085 494.862 146.443 495.191 145.249C495.428 144.391 495.248 142.701 495.263 141.769L495.303 132.563L495.367 95.1812C489.202 89.9539 485.127 83.8427 483.526 75.8401C481.902 67.7226 484.055 59.7685 488.739 53.0839C493.425 46.3958 500.706 42.9743 508.572 41.6444Z"/>
	<path fill="white" transform="scale(0.69401 0.69401)" d="M509.478 100.504L514.989 100.486L514.808 142.455L510.25 142.54C510.009 142.277 509.645 142.087 509.528 141.75C508.891 139.922 509.519 134.84 509.517 132.728L509.478 100.504Z"/>
	<path fill="white" transform="scale(0.69401 0.69401)" d="M511.569 55.6154C514.151 55.4776 517.005 56.189 519.25 57.4561C522.822 59.4719 526.15 63.162 527.144 67.2203C528.054 70.9394 527.382 75.1515 525.355 78.3928C522.631 82.7504 518.636 84.5457 513.886 85.7616C510.392 85.6313 507.513 85.5445 504.428 83.6302C500.804 81.3809 498.194 77.5669 497.223 73.4403C496.339 69.6815 497.287 66.2153 499.397 63.0625C502.485 58.4479 506.285 56.6391 511.569 55.6154Z"/>
	<path fill="white" transform="scale(0.69401 0.69401)" d="M504.037 157.71L504.699 157.713L517.427 157.971C517.992 157.985 520.319 157.826 520.733 158.054C521.421 158.43 522.562 160.03 523.127 160.699L530.558 170.275C538.094 180.013 546.156 189.515 554.821 198.267C565.032 208.582 575.538 218.786 587.002 227.717C619.51 253.042 658.234 269.842 699.314 274.28C716.215 276.105 733.455 275.447 750.437 275.376L826.489 275.217C826.471 281.677 826.283 288.225 826.889 294.662C828.263 309.255 832.839 323.554 840.167 336.25C846.948 347.999 856.652 357.711 867.026 366.301C883.219 379.708 900.579 389.448 919.7 397.949C933.123 403.917 946.563 409.036 960.784 412.837L960.586 707.048L932.787 720.613L901.482 738.238C889.986 745.042 878.267 752.563 868.363 761.571C847.839 780.237 832.646 806.096 827.702 833.561C826.216 841.814 826.032 850.284 825.609 858.641L747.075 858.666L714.991 858.832C669.307 861.213 622.565 879.363 584.833 904.9C560.95 921.064 539.427 940.063 517.835 959.099C517.252 959.62 512.948 963.394 512.663 963.384C512.547 963.38 511.382 962.541 511.25 962.449C501.382 955.506 492.639 946.835 483.473 939.003C464.758 923.012 444.925 907.111 423.45 894.946C389.958 875.974 353.664 862.465 314.981 859.685C300.259 858.627 285.275 859.091 270.518 859.1L199.322 859.139C198.929 844.491 197.825 831.05 192.847 817.11C186.793 800.161 177.222 786.024 165.258 772.75C137.702 742.175 101.13 722.26 64.3518 704.891C63.8957 702.143 64.1435 699.086 64.1318 696.301L64.0778 679.829L64.041 620.207L64.078 412.456C98.3243 401.485 132.197 388.446 159.814 364.608C175.48 351.085 187.96 333.197 193.722 313.2C197.282 300.847 198.529 288.25 199.453 275.489L317.203 274.757C376.04 271.14 431.056 239.938 470.95 197.658C477.063 191.179 483.086 184.426 488.599 177.43C493.757 170.884 498.512 163.949 504.037 157.71Z"/>
	<path transform="scale(0.69401 0.69401)" d="M512.445 203.173L537.814 231.685C582.438 275.821 639.691 305.02 702.734 310.169C714.986 311.17 727.333 310.944 739.617 310.956L791.8 310.834C795.403 329.316 804.748 348.904 815.258 364.443L822.627 374.391C823.964 376.169 825.706 378.102 826.509 380.175C828.016 384.065 827.599 389.263 827.704 393.42L839.81 393.069C840.72 393.039 843.033 392.669 843.831 392.934C844.729 393.232 845.944 394.435 846.66 395.033L853.515 400.75C859.951 406.014 866.722 410.84 873.798 415.207C889.637 424.984 906.816 431.948 924.219 438.365L924.152 512.402L924.113 636.175L924.164 672.77C924.169 676.496 925.03 683.498 923.804 686.876C923.097 688.824 920.53 689.395 918.772 689.865C911.054 691.931 904.702 694.87 897.566 698.343C883.773 705.057 870.559 713.332 858.402 722.675L848.69 730.904C846.879 732.493 844.908 734.466 842.68 735.432L842.093 735.666C838.403 737.207 833.217 736.695 829.225 736.751C829.187 741.039 829.96 747.471 828.243 751.386C826.109 756.251 820.933 760.796 817.705 765.079C813.856 770.185 810.519 775.663 807.514 781.303C803.687 788.485 800.346 795.899 797.533 803.535C795.91 807.939 795.036 814.494 792.524 818.287C791.231 820.238 789.617 821.553 787.25 821.884C783.595 822.394 779.568 822.162 775.877 822.194L753.507 822.181L714.11 822.178C697.239 822.923 680.314 825.274 663.891 829.229C625.852 838.388 589.975 855.98 557.95 878.252C548.9 884.546 540.001 891.125 531.682 898.37C526.9 902.534 522.407 907.555 517.395 911.364C515.847 912.541 514.259 912.945 512.38 913.319C510.624 912.984 508.56 912.707 507.087 911.628C503.869 909.27 501.042 905.991 498.034 903.336L477.929 887.06C448.186 864.922 414.483 846.227 378.932 835.314C357.842 828.84 335.468 825.144 313.46 823.727C302.509 823.022 291.403 823.328 280.432 823.348L232.475 823.318C227.748 803.521 220.347 784.59 208.636 767.823L200.121 756.434C198.804 754.756 196.552 752.485 195.653 750.589C194.252 747.636 195.08 740.097 195.06 736.692L192.653 736.687C189.539 736.669 184.73 737.275 181.821 736.577C180.979 736.375 178.139 733.423 177.342 732.743L161.425 719.825C153.35 713.845 144.756 708.314 136.129 703.173L119.5 693.719L108.858 688.252C106.875 687.252 104.44 686.239 102.939 684.563C101.376 682.819 100.64 681.749 100.383 679.404C99.5611 671.902 100.263 663.664 100.27 656.065L100.174 609.563L100.327 438.113C119.304 431.135 138.079 423.81 155.227 412.898C160.773 409.368 166.158 405.579 171.312 401.497L177.698 395.957C178.504 395.201 179.925 393.508 181.001 393.21C182.184 392.882 184.242 393.095 185.508 393.05L195.703 392.684C195.645 388.952 195.299 383.66 196.717 380.2C197.603 378.038 199.737 375.896 201.224 374.055C204.216 370.353 207.172 366.693 209.814 362.725C220.387 346.846 226.309 329.652 231.627 311.483L312.796 311.163C365.013 306.527 415.59 289.386 457.492 257.305C478.145 241.493 495.81 223.075 512.445 203.173Z"/>
	<path fill="white" transform="scale(0.69401 0.69401)" d="M512.031 226.328C513.459 227.095 514.586 228.728 515.687 229.927L523.458 238.277C541.046 255.918 560.814 272.355 582.028 285.469C616.301 306.656 655.667 320.169 695.75 324.224C708.916 325.556 722.141 325.461 735.354 325.483L781.033 325.524C785.073 339.17 791.327 352.225 798.554 364.455C801.735 369.839 805.227 375.02 809.007 380C809.85 381.11 812.85 384.102 813.127 385.229C813.536 386.9 813.134 389.862 813.137 391.645L813.161 407.662L830.33 407.796C832.294 407.749 836.849 406.971 838.57 407.5C839.139 407.675 840.526 409.015 840.975 409.393L848.402 415.622C852.938 419.319 857.831 422.693 862.767 425.83C877.194 435 892.945 442.77 909.047 448.498L909.148 676.58C889.444 685.193 870.704 695.055 853.231 707.634C849.519 710.306 845.839 713.09 842.395 716.103C840.56 717.708 837.938 721.08 835.968 722.155C834.98 722.693 831.838 722.4 830.587 722.41L813.988 722.534L813.97 746.237C808.285 753.686 802.456 761.005 797.474 768.958C792.918 776.231 789.072 784.267 785.834 792.214L781.536 804.231C781.457 804.492 780.619 807.417 780.578 807.44C780.37 807.558 778.326 807.441 778.049 807.441L768.317 807.445L711.312 807.606C637.435 810.846 566.132 847.149 511.889 895.987C459.114 848.721 393.222 815.857 322.079 809.935C309.892 808.921 297.639 809.055 285.42 809.059L244.689 808.843C239.104 793.844 233.569 779.815 224.982 766.188L214.257 750.912C213.252 749.574 210.539 747.037 210.011 745.618C209.648 744.64 209.977 741.705 209.967 740.56L209.807 722.496C207.967 721.968 205.571 722.229 203.641 722.22L192.552 722.171C191.351 722.166 189.074 722.461 187.975 722.153C187.615 722.052 186.471 720.952 186.166 720.709L179.974 715.7L165.318 704.78C149.585 693.629 132.751 683.709 115.41 675.286L115.173 512.182L115.243 466.458C115.264 460.938 114.43 453.613 115.557 448.295C132.761 441.91 149.41 434.329 164.958 424.523C170.336 421.131 175.499 417.383 180.562 413.538L186.479 409.006C186.961 408.635 188.145 407.506 188.65 407.332C189.703 406.969 192.175 407.185 193.353 407.157L210.399 407.114L210.43 392.195C210.438 390.604 210.107 387.916 210.545 386.439C210.822 385.505 211.884 384.491 212.499 383.71L218.557 375.95C229.835 360.921 236.79 343.491 243.266 326.024L311.536 325.946C360.082 323.386 409.513 306.896 450.195 280.269C473.287 265.156 493.641 246.858 512.031 226.328Z"/>
	<path transform="scale(0.69401 0.69401)" d="M619.984 501.561L635.002 501.6L635.348 628.49L619.985 628.467L619.984 501.561Z"/>
	<path transform="scale(0.69401 0.69401)" d="M227.526 502.057L320.751 501.983L320.88 516.714L282.033 516.776L282.233 589.75L282.16 628.504L272.193 628.415C270.688 628.4 268.851 628.636 267.447 628.081L267.245 516.893L227.447 516.876L227.526 502.057Z"/>
	<path transform="scale(0.69401 0.69401)" d="M524.44 500.696C542.716 498.892 560.376 505.189 575.71 514.618L565.894 524.548C565.796 524.627 564.273 525.825 564.23 525.817C562.75 525.516 559.668 522.915 558.074 522.104C550.824 518.415 542.776 516.322 534.684 515.657C526.076 514.949 514.653 515.554 507.834 521.75C504.444 524.83 502.591 528.328 502.528 533.013C502.224 555.536 538.296 554.63 553.286 558.378C561.866 560.523 570.27 563.923 576.458 570.463C582.973 577.35 584.868 585.235 584.569 594.508C584.294 603.039 579.992 610.752 573.812 616.464C561.523 627.822 544.826 629.51 528.875 628.995L515.646 627.165C505.452 624.97 495.151 621.078 486.475 615.21C484.578 613.926 482.027 612.327 480.796 610.414L491.91 599.45L493.223 600.59C506.434 611.085 527.205 615.114 543.735 613.374C551.792 612.525 560.81 609.2 565.965 602.657C568.895 598.938 570.167 594.24 569.398 589.547C566.487 571.769 535.613 571.548 522 568.491C514.525 566.813 506.496 564.126 500.343 559.431C493.447 554.17 489.811 547.379 488.693 538.823C487.566 530.198 489.263 521.808 494.715 514.925C501.996 505.734 513.188 501.942 524.44 500.696Z"/>
	<path transform="scale(0.69401 0.69401)" d="M681.506 499.721L779.983 597.196L780.217 501.795L795.349 501.755L795.27 629.625L795.117 631.75C793.241 631.298 791.245 628.834 789.802 627.47L769.363 607.108L696.221 536.184L696.13 628.494L681.439 628.503L681.506 499.721Z"/>
	<path transform="scale(0.69401 0.69401)" d="M397.916 498.272L470.035 628.262L452.482 628.334L437.997 600.814L399.75 600.593L359.393 600.557C357.283 602.825 355.604 606.654 354.085 609.409L343.913 628.182C338.648 629.118 332.079 628.479 326.681 628.478L397.916 498.272Z"/>
	<path fill="white" transform="scale(0.69401 0.69401)" d="M397.812 529.515L429.172 585.626L399.25 585.718L367.102 585.544L397.812 529.515Z"/>
	<path transform="scale(0.69401 0.69401)" d="M197.271 459.157L809.102 459.003C825.078 459.009 840.744 456.579 852.983 469.069C864.372 480.692 861.579 498.007 861.549 512.876L846.809 512.823L846.826 496.87C846.815 493.192 847.051 489.103 845.746 485.604C843.521 479.64 839.008 476.691 833.442 474.306C831.558 473.869 829.728 473.63 827.792 473.569L788.544 473.523L707.22 473.646L456.643 473.567L286.567 473.636L229.542 473.596C220.052 473.592 210.242 473.074 200.782 473.666C196.257 473.95 191.922 475.404 188.616 478.622C180.699 486.329 182.985 501.355 182.984 511.61C182.149 512.171 180.486 511.911 179.477 511.918L168.47 511.998L168.486 495.163C168.484 491.282 168.204 487.145 169.214 483.373L169.463 482.5C170.478 478.614 171.888 474.872 174.332 471.627C180.107 463.96 187.964 460.493 197.271 459.157Z"/>
	<path transform="scale(0.69401 0.69401)" d="M168.157 613.611L182.827 613.548L182.81 629.771C182.821 636.075 182.342 642.199 185.923 647.75C188.932 652.414 194.458 657.326 200.077 658.43L200.75 658.551C202.229 658.835 203.604 659.012 205.111 659.031L350.67 658.667L605.277 658.64L752.346 658.664L801.287 658.677C809.626 658.67 818.291 659.126 826.597 658.493C831.54 658.117 836.174 655.713 839.67 652.254C846.897 645.104 846.747 636.474 846.737 627.053L846.877 613.359L861.52 613.371L861.529 627.678C861.603 632.787 861.975 638.522 860.766 643.507L860.517 644.5C858.235 653.831 852.672 661.903 844.751 667.373C840.4 670.378 834.597 673.196 829.25 673.466L778.354 673.531L676.478 673.529L375.989 673.578L249.603 673.609L216.265 673.61C210.927 673.607 204.454 674.261 199.259 673.189C191.592 671.608 184.797 668.599 179.183 663.007C165.639 649.517 168.065 631.057 168.157 613.611Z"/>
</svg>
